<svg width="83" height="26" viewBox="0 0 83 26" fill="none" xmlns="http://www.w3.org/2000/svg">
<path d="M82.6734 7.66902C81.9204 5.51612 79.8683 3.97013 77.4581 3.97013H77.4076C75.8408 3.97013 74.4287 4.62226 73.4235 5.66915C72.4167 4.62226 71.0046 3.97013 69.4395 3.97013H69.389C68.0117 3.97013 66.7527 4.47445 65.7858 5.30918V4.88486C65.7528 4.46227 65.405 4.13012 64.9754 4.13012H61.2783C60.8261 4.13012 60.4609 4.49532 60.4609 4.9492V25.0261C60.4609 25.48 60.8261 25.8452 61.2783 25.8452H64.9754C65.3876 25.8452 65.7267 25.5374 65.7806 25.1392L65.7788 10.7262C65.7788 10.6758 65.7806 10.6288 65.7858 10.5819C65.8449 9.93843 66.3162 9.40977 67.0605 9.34369H67.1979H67.5857H67.7422C68.0535 9.37151 68.3161 9.48107 68.523 9.64628C68.8447 9.90191 69.0238 10.2949 69.0238 10.7262L69.0378 25.0679C69.0378 25.5217 69.4047 25.8887 69.8551 25.8887H73.5522C73.9887 25.8887 74.3435 25.5409 74.3644 25.1079L74.3626 10.7071C74.3609 10.2341 74.58 9.80627 74.9643 9.55237C75.1539 9.43064 75.3817 9.34891 75.6443 9.32456H75.7817H76.1695H76.326C77.1259 9.39412 77.6094 10.001 77.6076 10.7071L77.6215 25.0296C77.6215 25.4835 77.9885 25.8487 78.4389 25.8487H82.136C82.5864 25.8487 82.9533 25.4835 82.9533 25.0296V9.62541C82.9533 8.57504 82.8351 8.12812 82.6734 7.66902Z" fill="#54C1F0"/>
<path d="M57.6445 4.18233H55.5299V0.756472C55.5299 0.752993 55.5299 0.749516 55.5299 0.746038C55.5299 0.333891 55.196 0 54.7838 0C54.7351 0 54.6882 0.0069561 54.643 0.0156517C52.2988 0.659086 52.7683 3.90583 48.4886 4.18233H48.393H48.073C48.0104 4.18233 47.9513 4.19102 47.8939 4.2032C47.5287 4.28493 47.2539 4.61013 47.2539 4.99967V8.69681C47.2539 9.14721 47.6208 9.51415 48.073 9.51415H50.3041L50.3007 25.1914C50.3007 25.6383 50.6624 26 51.1093 26H54.7647C55.2099 26 55.5716 25.6383 55.5716 25.1914L55.5733 9.51415H57.6445C58.0949 9.51415 58.4619 9.14721 58.4619 8.69681V4.99967C58.4619 4.54926 58.0949 4.18233 57.6445 4.18233Z" fill="#54C1F0"/>
<path d="M44.3431 4.1816H40.646C40.1956 4.1816 39.8304 4.54854 39.8304 4.99894V12.6436C39.8217 13.1167 39.4391 13.4958 38.9643 13.4958H37.4166C36.9367 13.4958 36.5489 13.1097 36.5489 12.6297L36.5349 4.99894C36.5349 4.54854 36.168 4.1816 35.7176 4.1816H32.0205C31.5683 4.1816 31.2031 4.54854 31.2031 4.99894V13.3775C31.2031 16.5599 33.4725 18.8293 36.6567 18.8293C36.6567 18.8293 39.0461 18.8293 39.1191 18.8432C39.5504 18.8919 39.886 19.2536 39.886 19.6988C39.886 20.1388 39.5573 20.4988 39.1313 20.5527C39.1104 20.5562 39.0913 20.5614 39.0687 20.5649L33.6621 20.584C33.2099 20.584 32.8448 20.9509 32.8448 21.4013V25.0967C32.8448 25.5489 33.2099 25.9141 33.6621 25.9141H39.7069C42.8928 25.9141 45.1605 23.6464 45.1605 20.4623V4.99894C45.1605 4.54854 44.7953 4.1816 44.3431 4.1816Z" fill="#233266"/>
<path d="M8.55769 10.956V12.6811V13.2376C8.55769 13.7158 8.16989 14.1053 7.69166 14.1053L5.34573 14.1071V9.5352H7.69166C8.16989 9.5352 8.55769 9.92126 8.55769 10.4012V10.956ZM8.88288 4.18077H0.801685C0.358237 4.18077 0 4.54075 0 4.98246V8.60482C0 8.61178 0.00173889 8.61874 0.00173889 8.62569C0.00173889 8.64308 0 8.66047 0 8.67612V20.2945V25.0715C0 25.5167 0.33389 25.8802 0.747776 25.8906H0.817336H4.51448C4.96488 25.8906 5.33182 25.5254 5.33182 25.0733L5.34573 19.4545H8.88288C11.8427 19.4545 13.9052 17.4008 13.9052 14.4288V9.21348C13.9052 6.2415 11.8427 4.18077 8.88288 4.18077Z" fill="#233266"/>
<path d="M23.8986 19.6355V20.2129C23.8986 20.2598 23.8917 20.305 23.8847 20.3485C23.876 20.3903 23.8638 20.4303 23.8499 20.4685C23.7352 20.792 23.4117 21.0267 23.0274 21.0267H21.4884C21.0084 21.0267 20.6171 20.6615 20.6171 20.2129V19.5155C20.6171 19.5068 20.6154 19.4981 20.6154 19.4894L20.6171 17.6339V17.6304V17.4252V17.0531L20.6188 17.0479C20.6206 16.6009 21.0084 16.2392 21.4884 16.2392H23.0274C23.5091 16.2392 23.8986 16.6027 23.8986 17.0531V19.6355ZM23.3108 4.20177H18.1807C17.7269 4.20177 17.3599 4.54609 17.3599 4.96867V6.40684C17.3599 6.41553 17.3617 6.42597 17.3617 6.43466C17.3617 6.4451 17.3599 6.45553 17.3599 6.46596V8.43627C17.3599 8.88319 17.7495 9.24839 18.2294 9.24839H23.1143C23.5004 9.30925 23.8065 9.59097 23.8499 10.0309V10.5074C23.8065 10.9265 23.5039 11.2326 23.1352 11.2674H20.7162C17.4991 11.2674 15.207 13.4046 15.207 16.4062V20.5955V20.705C15.207 23.6892 17.1773 25.8125 20.3719 25.8125H27.0758C28.2792 25.8125 29.2548 24.9013 29.2548 23.7796V9.75096C29.2548 6.34945 27.5019 4.20177 23.3108 4.20177Z" fill="#233266"/>
</svg>
