<svg width="51" height="40" viewBox="0 0 51 40" fill="none" xmlns="http://www.w3.org/2000/svg">
<path d="M46.0158 15.7028C46.2991 16.7821 47.4054 17.4296 48.4981 17.1328C49.5774 16.8495 50.2249 15.7433 49.9281 14.6505C49.6448 13.5713 48.5386 12.9237 47.4458 13.2205C46.3801 13.5173 45.7325 14.6236 46.0158 15.7028Z" fill="#2A4C87"/>
<path d="M43.2782 17.8628C44.0067 17.6605 44.4519 16.905 44.2496 16.1765C44.0472 15.448 43.2917 15.0028 42.5632 15.2052C41.8347 15.4075 41.3895 16.163 41.5919 16.8915C41.7808 17.62 42.5362 18.0517 43.2782 17.8628Z" fill="#2A4C87"/>
<path d="M39.2303 18.5625C39.7699 18.4141 40.0937 17.861 39.9453 17.3214C39.7969 16.7817 39.2438 16.458 38.7042 16.6064C38.1645 16.7548 37.8408 17.3079 37.9892 17.8475C38.1376 18.3871 38.6907 18.7109 39.2303 18.5625Z" fill="#2A4C87"/>
<path d="M36.0893 19.0363C36.4266 18.9419 36.629 18.5911 36.548 18.2538C36.4671 17.9166 36.1028 17.7142 35.7656 17.7951C35.4283 17.8896 35.2259 18.2403 35.3069 18.5776C35.3878 18.9149 35.7386 19.1172 36.0893 19.0363Z" fill="#2E4E88"/>
<path d="M44.5213 11.6009C45.034 12.4778 46.1537 12.7881 47.0306 12.2754C47.9075 11.7628 48.2178 10.6431 47.7051 9.76617C47.1925 8.88928 46.0728 8.57899 45.1959 9.09164C44.319 9.60428 44.0087 10.724 44.5213 11.6009Z" fill="#1F3D70"/>
<path d="M40.4575 13.9369C40.8083 14.5575 41.5908 14.7598 42.2113 14.4091C42.8319 14.0583 43.0343 13.2759 42.6835 12.6553C42.3327 12.0347 41.5503 11.8324 40.9297 12.1831C40.3226 12.5339 40.1068 13.3163 40.4575 13.9369Z" fill="#1F3D70"/>
<path d="M37.5721 14.5423C37.1269 14.7986 36.9785 15.3517 37.2348 15.7969C37.4911 16.2421 38.0442 16.3905 38.4894 16.1342C38.9346 15.8779 39.083 15.3247 38.8267 14.8795C38.5839 14.4478 38.0173 14.2994 37.5721 14.5423Z" fill="#1F3D70"/>
<path d="M34.9925 16.4037C34.7092 16.5656 34.6012 16.9299 34.7631 17.2132C34.925 17.4965 35.2893 17.6044 35.5726 17.4425C35.8559 17.2806 35.9638 16.9164 35.8019 16.6331C35.64 16.3498 35.2758 16.2419 34.9925 16.4037Z" fill="#1F3D70"/>
<path d="M44.3157 7.99925C44.9632 7.35169 44.9632 6.31291 44.3157 5.66535C43.6681 5.0178 42.6293 5.0178 41.9818 5.66535C41.3342 6.31291 41.3342 7.35169 41.9818 7.99925C42.6158 8.6468 43.6681 8.6468 44.3157 7.99925Z" fill="#194C88"/>
<path d="M40.2827 9.68616C39.8105 9.21399 39.055 9.21399 38.5963 9.68616C38.1241 10.1583 38.1241 10.9138 38.5963 11.3725C39.0685 11.8447 39.824 11.8447 40.2827 11.3725C40.7548 10.9003 40.7548 10.1448 40.2827 9.68616Z" fill="#194C88"/>
<path d="M35.9655 12.8291C35.6417 13.1528 35.6417 13.679 35.9655 14.0028C36.2893 14.3265 36.8154 14.3265 37.1392 14.0028C37.463 13.679 37.463 13.1528 37.1392 12.8426C36.8154 12.5053 36.2893 12.5053 35.9655 12.8291Z" fill="#194C88"/>
<path d="M33.9275 16.0401C34.1434 16.2559 34.4941 16.2559 34.71 16.0401C34.9258 15.8242 34.9258 15.4734 34.71 15.2576C34.4941 15.0417 34.1434 15.0417 33.9275 15.2576C33.7117 15.4734 33.7117 15.8242 33.9275 16.0401Z" fill="#194C88"/>
<path d="M38.5042 5.22053C39.2462 5.65223 40.204 5.3959 40.6357 4.65391C41.0674 3.91192 40.8111 2.95408 40.0691 2.52238C39.3271 2.09068 38.3693 2.347 37.9376 3.08899C37.4924 3.83098 37.7487 4.78882 38.5042 5.22053Z" fill="#3468A3"/>
<path d="M35.7085 7.85153C35.3982 8.37767 35.5871 9.0522 36.1132 9.36249C36.6394 9.67278 37.3139 9.48391 37.6242 8.95777C37.9345 8.43163 37.7456 7.75709 37.2195 7.44681C36.6799 7.13652 36.0053 7.32539 35.7085 7.85153Z" fill="#3468A3"/>
<path d="M34.9791 11.305C34.6283 11.1026 34.1831 11.224 33.9808 11.5748C33.7784 11.9256 33.8998 12.3708 34.2506 12.5731C34.6013 12.7755 35.0465 12.6541 35.2489 12.3033C35.4513 11.9525 35.3298 11.5073 34.9791 11.305Z" fill="#3468A3"/>
<path d="M33.2804 14.2466C33.0375 14.1117 32.7272 14.1927 32.5923 14.4355C32.4574 14.6783 32.5384 14.9886 32.7812 15.1235C33.024 15.2584 33.3343 15.1775 33.4692 14.9347C33.6041 14.6918 33.5232 14.3815 33.2804 14.2466Z" fill="#3468A3"/>
<path d="M34.4036 3.42767C35.1861 3.64353 35.9955 3.17135 36.1979 2.38889C36.4138 1.60643 35.9416 0.796983 35.1591 0.594622C34.3767 0.392261 33.5672 0.850946 33.3648 1.63341C33.149 2.41587 33.6212 3.22531 34.4036 3.42767Z" fill="#4C8DCB"/>
<path d="M33.1605 8.04103C33.7002 8.18942 34.2533 7.86565 34.4017 7.32602C34.5501 6.78639 34.2263 6.23327 33.6867 6.08487C33.147 5.93647 32.5939 6.26025 32.4455 6.79988C32.3106 7.33951 32.6209 7.89263 33.1605 8.04103Z" fill="#4C8DCB"/>
<path d="M32.1875 11.6841C32.5518 11.7785 32.9295 11.5627 33.0239 11.1984C33.1184 10.8342 32.9025 10.4564 32.5383 10.362C32.174 10.2676 31.7963 10.4834 31.7019 10.8477C31.6074 11.1984 31.8233 11.5762 32.1875 11.6841Z" fill="#4C8DCB"/>
<path d="M31.1101 13.9495C31.0426 14.1923 31.191 14.4486 31.4338 14.5161C31.6767 14.5835 31.933 14.4351 32.0004 14.1923C32.0679 13.9495 31.9195 13.6931 31.6767 13.6257C31.4203 13.5582 31.164 13.7066 31.1101 13.9495Z" fill="#4C8DCB"/>
<path d="M29.9503 2.75211C30.7058 2.75211 31.3263 2.13153 31.3263 1.37605C31.3263 0.620573 30.7058 0 29.9503 0C29.1948 0 28.5742 0.620573 28.5742 1.37605C28.5742 2.14503 29.1948 2.75211 29.9503 2.75211Z" fill="#3498B3"/>
<path d="M29.9486 5.69336C29.436 5.69336 29.0312 6.09808 29.0312 6.61073C29.0312 7.12338 29.436 7.5281 29.9486 7.5281C30.4613 7.5281 30.866 7.12338 30.866 6.61073C30.866 6.11157 30.4613 5.69336 29.9486 5.69336Z" fill="#3498B3"/>
<path d="M30.5959 10.6983C30.5959 10.3476 30.3126 10.0508 29.9483 10.0508C29.5841 10.0508 29.3008 10.3341 29.3008 10.6983C29.3008 11.0626 29.5841 11.3459 29.9483 11.3459C30.3126 11.3459 30.5959 11.0491 30.5959 10.6983Z" fill="#3498B3"/>
<path d="M29.9495 13.4492C29.7201 13.4492 29.5312 13.6381 29.5312 13.8674C29.5312 14.0968 29.7201 14.2856 29.9495 14.2856C30.1788 14.2856 30.3677 14.0968 30.3677 13.8674C30.3677 13.6381 30.1788 13.4492 29.9495 13.4492Z" fill="#3498B3"/>
<path d="M25.4569 3.26503C26.1449 3.07616 26.5496 2.37464 26.3607 1.68661C26.1719 0.998585 25.4703 0.593864 24.7823 0.782734C24.0943 0.971604 23.6896 1.67312 23.8784 2.36115C24.0673 3.03569 24.7823 3.44041 25.4569 3.26503Z" fill="#0AA496"/>
<path d="M25.6854 7.2841C25.8068 7.72929 26.252 7.98561 26.6972 7.8642C27.1424 7.74278 27.3988 7.29759 27.2773 6.85239C27.1559 6.4072 26.7107 6.15088 26.2655 6.27229C25.8338 6.39371 25.564 6.85239 25.6854 7.2841Z" fill="#0AA496"/>
<path d="M26.9688 11.1845C27.0498 11.5083 27.3871 11.6971 27.6973 11.6027C28.0211 11.5218 28.21 11.1845 28.1155 10.8742C28.0346 10.5504 27.6973 10.3616 27.3871 10.456C27.0633 10.5369 26.8879 10.8607 26.9688 11.1845Z" fill="#0AA496"/>
<path d="M28.0051 14.1778C28.059 14.3801 28.2614 14.4881 28.4503 14.4341C28.6526 14.3801 28.7605 14.1778 28.7066 13.9889C28.6526 13.7865 28.4503 13.6786 28.2614 13.7326C28.0725 13.7865 27.9511 13.9754 28.0051 14.1778Z" fill="#0AA496"/>
<path d="M21.2322 4.9235C21.7988 4.59972 22.0012 3.85773 21.6774 3.29112C21.3536 2.72451 20.6116 2.52215 20.045 2.84593C19.4784 3.16971 19.2761 3.9117 19.5998 4.47831C19.9371 5.05841 20.6656 5.24728 21.2322 4.9235Z" fill="#00AA75"/>
<path d="M23.6236 9.05163C23.9744 8.84927 24.0958 8.40408 23.8934 8.05332C23.6911 7.70256 23.2459 7.58114 22.8951 7.7835C22.5444 7.98586 22.4229 8.43106 22.6253 8.78182C22.8142 9.13257 23.2729 9.25399 23.6236 9.05163Z" fill="#00AA75"/>
<path d="M25.5633 12.4375C25.8331 12.2891 25.9141 11.9519 25.7657 11.6821C25.6173 11.4122 25.28 11.3313 25.0102 11.4797C24.7404 11.6281 24.6594 11.9654 24.8078 12.2352C24.9697 12.4915 25.307 12.5859 25.5633 12.4375Z" fill="#00AA75"/>
<path d="M27.1589 14.5418C27.0645 14.3934 26.8756 14.3395 26.7137 14.4204C26.5653 14.5148 26.5113 14.7037 26.5923 14.8656C26.6867 15.014 26.8756 15.068 27.024 14.987C27.1994 14.8926 27.2533 14.6902 27.1589 14.5418Z" fill="#00AA75"/>
<path d="M17.5528 7.63479C17.9845 7.20309 17.9845 6.50157 17.5528 6.06987C17.1211 5.63817 16.4195 5.63817 15.9878 6.06987C15.5561 6.50157 15.5561 7.20309 15.9878 7.63479C16.433 8.0665 17.1346 8.0665 17.5528 7.63479Z" fill="#4FBA6A"/>
<path d="M20.9399 10.1044C20.6835 9.84803 20.2788 9.84803 20.036 10.1044C19.7797 10.3607 19.7797 10.7654 20.036 11.0082C20.2923 11.2646 20.697 11.2646 20.9399 11.0082C21.1827 10.7519 21.1827 10.3472 20.9399 10.1044Z" fill="#4FBA6A"/>
<path d="M23.7301 13.0854C23.5277 12.883 23.2174 12.883 23.0151 13.0854C22.8127 13.2877 22.8127 13.598 23.0151 13.8004C23.2174 14.0027 23.5277 14.0027 23.7301 13.8004C23.9189 13.598 23.9189 13.2877 23.7301 13.0854Z" fill="#4FBA6A"/>
<path d="M25.8077 15.4886C25.6998 15.3807 25.5244 15.3941 25.43 15.5021C25.3221 15.61 25.3355 15.7854 25.4435 15.8798C25.5514 15.9742 25.7133 15.9742 25.8212 15.8798C25.9156 15.7719 25.9156 15.5965 25.8077 15.4886Z" fill="#4FBA6A"/>
<path d="M13.2888 11.5603C13.7745 11.8436 14.395 11.6683 14.6649 11.1961C14.9482 10.7104 14.7728 10.0899 14.3006 9.82004C13.8149 9.53673 13.1944 9.71211 12.9246 10.1843C12.6413 10.6565 12.8031 11.277 13.2888 11.5603Z" fill="#7EC45F"/>
<path d="M18.6307 12.8557C18.3609 12.7073 18.0371 12.8017 17.8752 13.058C17.7268 13.3279 17.8212 13.6516 18.0776 13.8135C18.3474 13.9619 18.6712 13.881 18.8331 13.6112C18.9814 13.3413 18.887 13.0041 18.6307 12.8557Z" fill="#7EC45F"/>
<path d="M22.1254 14.9735C21.9095 14.8521 21.6262 14.9196 21.5048 15.1489C21.3834 15.3648 21.4508 15.6481 21.6802 15.7695C21.896 15.8909 22.1793 15.8234 22.3007 15.6076C22.4222 15.3917 22.3412 15.1084 22.1254 14.9735Z" fill="#7EC45F"/>
<path d="M48.6187 17.7949C47.4046 17.7949 46.4062 18.7797 46.4062 20.0074C46.4062 21.2216 47.3911 22.2199 48.6187 22.2199C49.8329 22.2199 50.8177 21.2351 50.8312 20.0209C50.8177 18.7932 49.8329 17.7949 48.6187 17.7949Z" fill="#4C609B"/>
<path d="M44.9654 20.0061C44.9654 19.1293 44.2639 18.4277 43.387 18.4277C42.5101 18.4277 41.8086 19.1293 41.8086 20.0061C41.8086 20.883 42.5101 21.5846 43.387 21.5846C44.2504 21.5846 44.9654 20.883 44.9654 20.0061Z" fill="#4C609B"/>
<path d="M39.298 18.9277C38.7044 18.9277 38.2188 19.4134 38.2188 20.007C38.2188 20.6006 38.7044 21.0863 39.298 21.0863C39.8916 21.0863 40.3773 20.6006 40.3773 20.007C40.3773 19.4134 39.8916 18.9277 39.298 18.9277Z" fill="#4C609B"/>
<path d="M36.8288 20.0062C36.8288 19.615 36.5185 19.3047 36.1273 19.3047C35.7361 19.3047 35.4258 19.615 35.4258 20.0062C35.4258 20.3974 35.7361 20.7077 36.1273 20.7077C36.5185 20.7077 36.8288 20.3974 36.8288 20.0062Z" fill="#54669F"/>
<path d="M48.4997 22.867C47.4204 22.5702 46.3142 23.2178 46.0174 24.297C45.7206 25.3763 46.3682 26.4825 47.4474 26.7793C48.5267 27.0761 49.6329 26.4286 49.9297 25.3493V25.3358C50.213 24.27 49.5655 23.1638 48.4997 22.867Z" fill="#746FA7"/>
<path d="M42.5641 24.7964C43.2926 24.9988 44.0481 24.5536 44.2505 23.8251C44.4528 23.0966 44.0076 22.3411 43.2791 22.1388C42.5507 21.9364 41.7952 22.3816 41.5928 23.1101C41.3904 23.8386 41.8222 24.5941 42.5641 24.7964Z" fill="#746FA7"/>
<path d="M38.7035 23.3926C39.2431 23.541 39.7962 23.2172 39.9446 22.6776C40.093 22.138 39.7693 21.5848 39.2296 21.4364C38.69 21.288 38.1369 21.6118 37.9885 22.1514C37.8536 22.6911 38.1639 23.2442 38.7035 23.3926Z" fill="#746FA7"/>
<path d="M35.7514 22.2194C36.0887 22.3138 36.4394 22.1115 36.5338 21.7607C36.6283 21.4234 36.4259 21.0727 36.0752 20.9783C35.7379 20.8838 35.3871 21.0862 35.2927 21.4369C35.1983 21.7607 35.4006 22.125 35.7514 22.2194Z" fill="#746FA7"/>
<path d="M47.0306 27.7244C46.1537 27.2118 45.034 27.5221 44.5213 28.399C44.0087 29.2759 44.319 30.3956 45.1959 30.9083C46.0728 31.4209 47.1925 31.1106 47.7051 30.2337C48.2043 29.3568 47.9075 28.2371 47.0306 27.7244Z" fill="#99558E"/>
<path d="M42.6981 27.3451C43.0489 26.7245 42.8465 25.9421 42.226 25.5913C41.6054 25.2406 40.8229 25.4429 40.4722 26.0635C40.1214 26.6841 40.3238 27.4665 40.9444 27.8173C41.5514 28.168 42.3339 27.9522 42.6981 27.3451Z" fill="#99558E"/>
<path d="M38.8267 25.1203C39.083 24.6751 38.9346 24.122 38.4894 23.8657C38.0442 23.6093 37.4911 23.7577 37.2348 24.2029C36.9785 24.6481 37.1269 25.2012 37.5721 25.4576C38.0173 25.7004 38.5704 25.552 38.8267 25.1203Z" fill="#99558E"/>
<path d="M35.819 23.3667C35.9809 23.0834 35.8865 22.7192 35.6032 22.5438C35.3199 22.3819 34.9556 22.4763 34.7803 22.7596C34.6049 23.043 34.7128 23.4072 34.9961 23.5826H35.0096C35.2929 23.7445 35.6572 23.65 35.819 23.3667Z" fill="#99558E"/>
<path d="M41.97 31.999C41.3225 32.6465 41.3225 33.6853 41.97 34.3329C42.6176 34.9804 43.6564 34.9804 44.3039 34.3329C44.9515 33.6853 44.9515 32.6465 44.3039 31.999C43.6699 31.3649 42.6176 31.3649 41.97 31.999Z" fill="#AF3379"/>
<path d="M40.2827 30.3139C40.7548 29.8417 40.7548 29.0863 40.2827 28.6276C39.8105 28.1554 39.055 28.1554 38.5963 28.6276C38.1241 29.0997 38.1241 29.8552 38.5963 30.3139C39.055 30.7861 39.8105 30.7861 40.2827 30.3139Z" fill="#AF3379"/>
<path d="M37.1392 27.1704C37.463 26.8467 37.463 26.3205 37.1392 25.9967C36.8154 25.673 36.2893 25.673 35.9655 25.9967C35.6417 26.3205 35.6417 26.8467 35.9655 27.1569C36.2893 27.4942 36.8154 27.4942 37.1392 27.1704Z" fill="#AF3379"/>
<path d="M33.9275 24.7295C34.1434 24.9454 34.4941 24.9454 34.71 24.7295C34.9258 24.5137 34.9258 24.1629 34.71 23.947C34.4941 23.7312 34.1434 23.7312 33.9275 23.947C33.7117 24.1629 33.7117 24.5137 33.9275 24.7295Z" fill="#AF3379"/>
<path d="M38.5031 34.7802C37.7611 35.2119 37.5047 36.1697 37.9364 36.9117C38.3681 37.6537 39.326 37.91 40.068 37.4783C40.81 37.0466 41.0663 36.0888 40.6346 35.3468C40.2029 34.6048 39.245 34.3485 38.5031 34.7802Z" fill="#BE266A"/>
<path d="M37.6125 31.0547C37.3022 30.5285 36.6412 30.3396 36.1015 30.6499C35.5754 30.9602 35.3865 31.6213 35.6968 32.1609C36.0071 32.687 36.6681 32.8759 37.2078 32.5656C37.7339 32.2553 37.9228 31.5808 37.6125 31.0547Z" fill="#BE266A"/>
<path d="M34.9791 28.6942C35.3298 28.4918 35.4513 28.0467 35.2489 27.6959C35.0465 27.3451 34.6013 27.2237 34.2506 27.4261C33.8998 27.6284 33.7784 28.0736 33.9808 28.4244C34.1831 28.7752 34.6283 28.8966 34.9791 28.6942Z" fill="#BE266A"/>
<path d="M32.7812 24.8775C32.5384 25.0124 32.4574 25.3227 32.5923 25.5655C32.7272 25.8083 33.0375 25.8893 33.2804 25.7544C33.5232 25.6195 33.6041 25.3092 33.4692 25.0664C33.3343 24.8235 33.024 24.7426 32.7812 24.8775Z" fill="#BE266A"/>
<path d="M34.4036 36.5738C33.6212 36.7897 33.149 37.5856 33.3648 38.3681C33.5807 39.1506 34.3767 39.6227 35.1591 39.4069C35.9416 39.191 36.4138 38.3951 36.1979 37.6126C35.9955 36.8302 35.1861 36.358 34.4036 36.5738Z" fill="#D4525C"/>
<path d="M33.6867 33.9024C34.2263 33.754 34.5501 33.2008 34.4017 32.6612C34.2533 32.1216 33.7002 31.7978 33.1605 31.9462C32.6209 32.0946 32.3106 32.6477 32.4455 33.1873C32.5939 33.7405 33.147 34.0508 33.6867 33.9024Z" fill="#D4525C"/>
<path d="M33.0239 28.8028C32.9295 28.4385 32.5518 28.2226 32.1875 28.3171C31.8233 28.4115 31.6074 28.7893 31.7019 29.1535C31.7963 29.5178 32.174 29.7336 32.5383 29.6392C32.916 29.5582 33.1319 29.1805 33.0239 28.8028Z" fill="#D4525C"/>
<path d="M31.9848 25.8088C31.9174 25.566 31.661 25.4176 31.4182 25.4851C31.1754 25.5525 31.027 25.8088 31.0944 26.0517C31.1619 26.2945 31.4047 26.4429 31.661 26.3754C31.9039 26.308 32.0523 26.0517 31.9848 25.8088Z" fill="#D4525C"/>
<path d="M29.9503 37.248C29.1948 37.248 28.5742 37.8686 28.5742 38.6241C28.5742 39.3796 29.1948 40.0002 29.9503 40.0002C30.7058 40.0002 31.3263 39.3931 31.3263 38.6241C31.3263 37.8686 30.7192 37.248 29.9503 37.248Z" fill="#E0654F"/>
<path d="M29.0312 33.39C29.0312 33.9027 29.436 34.3074 29.9486 34.3074C30.4613 34.3074 30.866 33.9027 30.866 33.39C30.866 32.8774 30.4613 32.4727 29.9486 32.4727C29.4495 32.4727 29.0312 32.8774 29.0312 33.39Z" fill="#E0654F"/>
<path d="M29.9483 29.9357C30.2991 29.9357 30.5959 29.6524 30.5959 29.2882C30.5959 28.9239 30.3126 28.6406 29.9483 28.6406C29.5976 28.6406 29.3008 28.9239 29.3008 29.2882C29.3143 29.6524 29.5976 29.9357 29.9483 29.9357Z" fill="#E0654F"/>
<path d="M29.9495 25.7129C29.7201 25.7129 29.5312 25.9018 29.5312 26.1311C29.5312 26.3604 29.7201 26.5493 29.9495 26.5493C30.1788 26.5493 30.3677 26.3604 30.3677 26.1311C30.3677 25.9018 30.1788 25.7129 29.9495 25.7129Z" fill="#E0654F"/>
<path d="M25.4559 36.7349C24.7679 36.5461 24.0664 36.9643 23.8775 37.6388C23.6886 38.3268 24.1069 39.0284 24.7814 39.2172C25.4694 39.4061 26.1709 38.9879 26.3598 38.3134C26.5487 37.6253 26.144 36.9238 25.4559 36.7349Z" fill="#F57F2A"/>
<path d="M26.6972 32.121C26.252 31.9996 25.8068 32.2694 25.6854 32.7011C25.564 33.1463 25.8338 33.5915 26.2655 33.7129C26.7107 33.8343 27.1559 33.5645 27.2773 33.1328C27.3988 32.7011 27.1424 32.2424 26.6972 32.121Z" fill="#F57F2A"/>
<path d="M27.6965 28.3977C27.3727 28.3167 27.0489 28.5056 26.968 28.8159C26.887 29.1396 27.0759 29.4634 27.3862 29.5444C27.71 29.6253 28.0337 29.4364 28.1147 29.1262C28.2091 28.8159 28.0202 28.4921 27.6965 28.3977Z" fill="#F57F2A"/>
<path d="M28.7217 26.0103C28.7757 25.8079 28.6542 25.6056 28.4654 25.5651C28.2765 25.5246 28.0606 25.6326 28.0202 25.8214C27.9797 26.0103 28.0876 26.2261 28.2765 26.2666C28.4654 26.3206 28.6677 26.2127 28.7217 26.0103Z" fill="#F57F2A"/>
<path d="M21.2356 35.0759C20.669 34.7521 19.9405 34.941 19.6032 35.5076C19.2794 36.0742 19.4683 36.8027 20.0349 37.14C20.6015 37.4637 21.33 37.2749 21.6673 36.7083C22.0046 36.1416 21.8022 35.4131 21.2356 35.0759Z" fill="#F89828"/>
<path d="M23.6236 30.9476C23.2729 30.7452 22.8277 30.8666 22.6253 31.2174C22.4229 31.5681 22.5444 32.0133 22.8951 32.2157C23.2459 32.4181 23.6911 32.2966 23.8934 31.9459C24.0958 31.5951 23.9744 31.1499 23.6236 30.9476Z" fill="#F89828"/>
<path d="M25.0258 28.5196C25.2956 28.668 25.6329 28.587 25.7813 28.3172C25.9297 28.0474 25.8487 27.7101 25.5789 27.5617C25.3091 27.4133 24.9718 27.4943 24.8234 27.7641C24.6751 28.0339 24.756 28.3712 25.0258 28.5196Z" fill="#F89828"/>
<path d="M27.0485 25.0113C26.9001 24.9169 26.6977 24.9708 26.6168 25.1327C26.5223 25.2811 26.5763 25.4835 26.7382 25.5644C26.8866 25.6589 27.089 25.6049 27.1699 25.443C27.2508 25.3081 27.1969 25.1057 27.0485 25.0113Z" fill="#F89828"/>
<path d="M15.9996 32.3648C15.5679 32.7965 15.5679 33.498 15.9996 33.9297C16.4313 34.3614 17.1328 34.3614 17.5645 33.9297C17.9962 33.498 17.9962 32.7965 17.5645 32.3648C17.1328 31.9331 16.4313 31.9331 15.9996 32.3648Z" fill="#FEC127"/>
<path d="M20.036 28.9911C19.7797 29.2474 19.7797 29.6521 20.036 29.895C20.2923 30.1513 20.697 30.1513 20.9399 29.895C21.1827 29.6386 21.1962 29.2339 20.9399 28.9911C20.697 28.7347 20.2788 28.7347 20.036 28.9911Z" fill="#FEC127"/>
<path d="M23.0151 26.1986C22.8127 26.401 22.8127 26.7113 23.0151 26.9137C23.2174 27.116 23.5277 27.116 23.7301 26.9137C23.9324 26.7113 23.9324 26.401 23.7301 26.1986C23.5277 25.9963 23.2039 25.9963 23.0151 26.1986Z" fill="#FEC127"/>
<path d="M25.8077 24.1214C25.6998 24.0135 25.5244 24.027 25.43 24.1349C25.3221 24.2428 25.3355 24.4182 25.4435 24.5126C25.5514 24.6071 25.7133 24.6071 25.8212 24.5126C25.9156 24.4047 25.9156 24.2293 25.8077 24.1214Z" fill="#FEC127"/>
<path d="M13.3162 28.4109C12.8305 28.6942 12.6686 29.3013 12.9519 29.7869C13.2352 30.2726 13.8423 30.4345 14.328 30.1512C14.8136 29.8679 14.9755 29.2608 14.6922 28.7751C14.4224 28.2895 13.8018 28.1276 13.3162 28.4109Z" fill="#FED627"/>
<path d="M18.0776 26.1858C17.8212 26.3342 17.7268 26.6714 17.8752 26.9412C18.0236 27.1976 18.3609 27.292 18.6307 27.1436C18.887 26.9952 18.9814 26.6579 18.8331 26.3881C18.6847 26.1318 18.3474 26.0374 18.0776 26.1858Z" fill="#FED627"/>
<path d="M21.6653 24.23C21.4495 24.3514 21.3685 24.6347 21.5035 24.8506C21.6249 25.0664 21.9082 25.1474 22.124 25.0125C22.3399 24.8911 22.4208 24.6078 22.2859 24.3919C22.1645 24.1761 21.8812 24.0951 21.6653 24.23Z" fill="#FED627"/>
<path d="M11.2648 16.796H12.8836V23.0287H11.2648V16.796ZM12.2496 14.0169C11.7504 13.882 11.2378 14.1788 11.1029 14.678C10.968 15.1771 11.2648 15.6898 11.7639 15.8247C12.2631 15.9596 12.7757 15.6628 12.9106 15.1636C13.0455 14.6645 12.7487 14.1383 12.2496 14.0169ZM17.8887 23.1636C17.4975 23.1636 17.1062 23.0962 16.742 22.9343C16.4182 22.7859 16.1349 22.5566 15.9191 22.2733V26.1451H14.3406V16.796H15.9056V17.6594C16.1079 17.3491 16.3912 17.1063 16.7285 16.9309C17.0793 16.7555 17.4705 16.6611 17.8752 16.6611C18.2664 16.6611 18.6442 16.7421 19.0084 16.8905C19.3727 17.0388 19.6965 17.2682 19.9663 17.538C20.2496 17.8348 20.4789 18.1856 20.6273 18.5633C20.8027 18.995 20.8836 19.4402 20.8701 19.8989C20.8836 20.3576 20.7892 20.8163 20.6138 21.248C20.4519 21.6257 20.2226 21.9765 19.9393 22.2733C19.4132 22.8399 18.6577 23.1636 17.8887 23.1636ZM17.5649 21.6527C17.7943 21.6527 18.0236 21.6122 18.2395 21.5178C18.4418 21.4233 18.6307 21.3019 18.7926 21.14C18.9545 20.9781 19.0759 20.7893 19.1568 20.5869C19.3322 20.1417 19.3322 19.6561 19.1568 19.2109C19.0759 19.0085 18.941 18.8196 18.7926 18.6577C18.6307 18.4958 18.4418 18.3744 18.2395 18.28C18.0236 18.1856 17.7943 18.1451 17.5649 18.1451C17.1062 18.1451 16.661 18.334 16.3238 18.6577C16.1619 18.8196 16.0405 19.0085 15.9595 19.2109C15.7841 19.6561 15.7841 20.1417 15.9595 20.5734C16.0405 20.7758 16.1619 20.9647 16.3238 21.1265C16.661 21.4773 17.1062 21.6662 17.5649 21.6527ZM22.0304 16.796H23.5953V17.7539C23.7302 17.4166 23.9595 17.1333 24.2698 16.9444C24.5936 16.769 24.9443 16.6746 25.3221 16.6881C25.5245 16.6881 25.7133 16.7151 25.9022 16.7555C26.0641 16.796 26.226 16.85 26.3744 16.9309L25.7943 18.4958C25.6863 18.4284 25.5649 18.3744 25.4435 18.334C25.2816 18.2935 25.1197 18.2665 24.9578 18.2665C24.5936 18.253 24.2428 18.3744 23.973 18.6038C23.7302 18.8331 23.6088 19.2109 23.6088 19.7235V23.0152H22.0304V16.796ZM29.8954 23.1636C29.4503 23.1636 29.0051 23.0827 28.5868 22.9073C28.1956 22.7454 27.8449 22.5026 27.5346 22.2058C26.9275 21.5987 26.5902 20.7758 26.5902 19.9124C26.5902 19.4807 26.6712 19.049 26.833 18.6442C26.9949 18.253 27.2243 17.9023 27.5211 17.6055C28.8297 16.3373 30.9073 16.3373 32.2159 17.6055C32.8229 18.2125 33.1737 19.0355 33.1737 19.8989C33.1737 20.3306 33.0927 20.7623 32.9174 21.1535C32.7555 21.5448 32.5126 21.8955 32.2293 22.1923C31.9325 22.4891 31.5818 22.7319 31.1771 22.8938C30.7858 23.0692 30.3406 23.1636 29.8954 23.1636ZM29.9089 21.6527C30.1383 21.6527 30.3676 21.6122 30.5835 21.5178C30.7858 21.4233 30.9612 21.3019 31.1231 21.1535C31.285 20.9916 31.4064 20.8028 31.4874 20.6004C31.6627 20.1552 31.6627 19.6695 31.4874 19.2378C31.4064 19.0355 31.285 18.8466 31.1231 18.6847C30.9612 18.5228 30.7858 18.4014 30.5835 18.3205C30.1518 18.1316 29.6661 18.1316 29.2479 18.3205C29.0455 18.4149 28.8702 18.5363 28.7083 18.6847C28.5464 18.8466 28.425 19.0355 28.344 19.2378C28.1686 19.683 28.1686 20.1687 28.344 20.6004C28.425 20.8028 28.5464 20.9916 28.7083 21.1535C28.8702 21.3154 29.0455 21.4368 29.2479 21.5178C29.4503 21.5987 29.6796 21.6527 29.9089 21.6527ZM0 16.796H1.61889L2.87352 20.7758L4.3575 16.796H5.76054L7.21754 20.7758L8.52614 16.796H10.145L8.02698 23.0287H6.52951L5.04553 18.968L3.54806 23.0287H2.02361L0 16.796Z" fill="#351A55"/>
</svg>
